<svg width="141" height="52" viewBox="0 0 141 52" fill="none" xmlns="http://www.w3.org/2000/svg">
<path d="M13.7969 36.6719C14.9323 36.6719 15.8542 36.5469 16.5625 36.2969C17.9062 35.8177 18.5781 34.9271 18.5781 33.625C18.5781 32.8646 18.2448 32.276 17.5781 31.8594C16.9115 31.4531 15.8646 31.0938 14.4375 30.7812L12 30.2344C9.60417 29.6927 7.94792 29.1042 7.03125 28.4688C5.47917 27.4062 4.70312 25.7448 4.70312 23.4844C4.70312 21.4219 5.45312 19.7083 6.95312 18.3438C8.45312 16.9792 10.6562 16.2969 13.5625 16.2969C15.9896 16.2969 18.0573 16.9427 19.7656 18.2344C21.4844 19.5156 22.3854 21.3802 22.4688 23.8281H17.8438C17.7604 22.4427 17.1562 21.4583 16.0312 20.875C15.2812 20.4896 14.349 20.2969 13.2344 20.2969C11.9948 20.2969 11.0052 20.5469 10.2656 21.0469C9.52604 21.5469 9.15625 22.2448 9.15625 23.1406C9.15625 23.9635 9.52083 24.5781 10.25 24.9844C10.7188 25.2552 11.7188 25.5729 13.25 25.9375L17.2188 26.8906C18.9583 27.3073 20.2708 27.8646 21.1562 28.5625C22.5312 29.6458 23.2188 31.2135 23.2188 33.2656C23.2188 35.3698 22.4115 37.1198 20.7969 38.5156C19.1927 39.901 16.9219 40.5938 13.9844 40.5938C10.9844 40.5938 8.625 39.9115 6.90625 38.5469C5.1875 37.1719 4.32812 35.2865 4.32812 32.8906H8.92188C9.06771 33.9427 9.35417 34.7292 9.78125 35.25C10.5625 36.1979 11.901 36.6719 13.7969 36.6719ZM47.1875 40H41L33.8906 29.9375L31.5938 32.2969V40H26.8594V16.9688H31.5938V26.4531L40.4844 16.9688H46.7031L37.2656 26.4531L47.1875 40ZM54.125 22.9688V40H49.6094V22.9688H54.125ZM54.125 16.8281V20.9375H49.6094V16.8281H54.125ZM58.5469 16.9688H63V40H58.5469V16.9688ZM71.9375 22.9688V40H67.4219V22.9688H71.9375ZM71.9375 16.8281V20.9375H67.4219V16.8281H71.9375ZM97.0312 40H90.8438L83.7344 29.9375L81.4375 32.2969V40H76.7031V16.9688H81.4375V26.4531L90.3281 16.9688H96.5469L87.1094 26.4531L97.0312 40ZM115.781 29.9375H104.594V35.8594H117.344V40H99.8906V16.9688H116.781V21.0469H104.594V25.9375H115.781V29.9375ZM137.828 16.9688V21.0469H130.938V40H126.094V21.0469H119.172V16.9688H137.828Z" fill="#00B4D8"/>
<rect x="58" y="17" width="5" height="23" fill="#0077B6"/>
<rect x="59" y="33" width="1" height="1" rx="0.2" fill="#FFBE0B"/>
<rect x="59" y="29" width="1" height="1" rx="0.2" fill="#FFBE0B"/>
<rect x="59" y="25" width="1" height="1" rx="0.2" fill="#FFBE0B"/>
<rect x="59" y="21" width="1" height="1" rx="0.2" fill="#FFBE0B"/>
<rect x="59" y="35" width="1" height="1" rx="0.2" fill="#FFBE0B"/>
<rect x="59" y="31" width="1" height="1" rx="0.2" fill="#FFBE0B"/>
<rect x="59" y="27" width="1" height="1" rx="0.2" fill="#FFBE0B"/>
<rect x="59" y="23" width="1" height="1" rx="0.2" fill="#FFBE0B"/>
<rect x="59" y="19" width="1" height="1" rx="0.2" fill="#FFBE0B"/>
<rect x="61" y="35" width="1" height="1" rx="0.2" fill="#FFBE0B"/>
<rect x="59" y="38" width="3" height="2" rx="0.2" fill="#FFBE0B"/>
<rect x="61" y="31" width="1" height="1" rx="0.2" fill="#FFBE0B"/>
<rect x="61" y="27" width="1" height="1" rx="0.2" fill="#FFBE0B"/>
<rect x="61" y="23" width="1" height="1" rx="0.2" fill="#FFBE0B"/>
<rect x="61" y="19" width="1" height="1" rx="0.2" fill="#FFBE0B"/>
<rect x="61" y="33" width="1" height="1" rx="0.2" fill="#FFBE0B"/>
<rect x="61" y="29" width="1" height="1" rx="0.2" fill="#FFBE0B"/>
<rect x="61" y="25" width="1" height="1" rx="0.2" fill="#FFBE0B"/>
<rect x="61" y="21" width="1" height="1" rx="0.2" fill="#FFBE0B"/>
<rect x="51" y="18" width="1" height="1.5" rx="0.2" fill="#F5F5F5"/>
<rect x="53" y="18" width="1" height="1.5" rx="0.2" fill="#FFFEFE"/>
<rect x="68" y="18" width="1" height="1.5" rx="0.2" fill="#F5F5F5"/>
<rect x="70" y="18" width="1" height="1.5" rx="0.2" fill="#FFFEFE"/>
<rect x="63" y="18" width="1" height="1.5" rx="0.2" fill="#FFFEFE"/>
<rect x="65" y="18" width="1" height="1.5" rx="0.2" fill="#FFFEFE"/>
</svg>
