<svg width="120" height="52" viewBox="0 0 120 52" fill="none" xmlns="http://www.w3.org/2000/svg">
<path d="M13.7969 36.6719C14.9323 36.6719 15.8542 36.5469 16.5625 36.2969C17.9062 35.8177 18.5781 34.9271 18.5781 33.625C18.5781 32.8646 18.2448 32.276 17.5781 31.8594C16.9115 31.4531 15.8646 31.0938 14.4375 30.7812L12 30.2344C9.60417 29.6927 7.94792 29.1042 7.03125 28.4688C5.47917 27.4062 4.70312 25.7448 4.70312 23.4844C4.70312 21.4219 5.45312 19.7083 6.95312 18.3438C8.45312 16.9792 10.6562 16.2969 13.5625 16.2969C15.9896 16.2969 18.0573 16.9427 19.7656 18.2344C21.4844 19.5156 22.3854 21.3802 22.4688 23.8281H17.8438C17.7604 22.4427 17.1562 21.4583 16.0312 20.875C15.2812 20.4896 14.349 20.2969 13.2344 20.2969C11.9948 20.2969 11.0052 20.5469 10.2656 21.0469C9.52604 21.5469 9.15625 22.2448 9.15625 23.1406C9.15625 23.9635 9.52083 24.5781 10.25 24.9844C10.7188 25.2552 11.7188 25.5729 13.25 25.9375L17.2188 26.8906C18.9583 27.3073 20.2708 27.8646 21.1562 28.5625C22.5312 29.6458 23.2188 31.2135 23.2188 33.2656C23.2188 35.3698 22.4115 37.1198 20.7969 38.5156C19.1927 39.901 16.9219 40.5938 13.9844 40.5938C10.9844 40.5938 8.625 39.9115 6.90625 38.5469C5.1875 37.1719 4.32812 35.2865 4.32812 32.8906H8.92188C9.06771 33.9427 9.35417 34.7292 9.78125 35.25C10.5625 36.1979 11.901 36.6719 13.7969 36.6719ZM42.0469 40H36.6719L32.5938 32.7188L30.75 34.6406V40H26.375V17.0469H30.75V29.4531L36.2969 23.0469H41.8125L35.8594 29.5625L42.0469 40ZM86.5781 40H81.2031L77.125 32.7188L75.2812 34.6406V40H70.9062V17.0469H75.2812V29.4531L80.8281 23.0469H86.3438L80.3906 29.5625L86.5781 40ZM103.344 35C103.229 36.0104 102.703 37.0365 101.766 38.0781C100.307 39.7344 98.2656 40.5625 95.6406 40.5625C93.474 40.5625 91.5625 39.8646 89.9062 38.4688C88.25 37.0729 87.4219 34.8021 87.4219 31.6562C87.4219 28.7083 88.1667 26.4479 89.6562 24.875C91.1562 23.3021 93.099 22.5156 95.4844 22.5156C96.901 22.5156 98.1771 22.7812 99.3125 23.3125C100.448 23.8438 101.385 24.6823 102.125 25.8281C102.792 26.8385 103.224 28.0104 103.422 29.3438C103.536 30.125 103.583 31.25 103.562 32.7188H91.9062C91.9688 34.4271 92.5052 35.625 93.5156 36.3125C94.1302 36.7396 94.8698 36.9531 95.7344 36.9531C96.651 36.9531 97.3958 36.6927 97.9688 36.1719C98.2812 35.8906 98.5573 35.5 98.7969 35H103.344ZM98.9375 29.7812C98.8646 28.6042 98.5052 27.7135 97.8594 27.1094C97.224 26.4948 96.4323 26.1875 95.4844 26.1875C94.4531 26.1875 93.651 26.5104 93.0781 27.1562C92.5156 27.8021 92.1615 28.6771 92.0156 29.7812H98.9375ZM114.375 36.8281V40.1562L112.266 40.2344C110.161 40.3073 108.724 39.9427 107.953 39.1406C107.453 38.6302 107.203 37.8438 107.203 36.7812V26.2969H104.828V23.125H107.203V18.375H111.609V23.125H114.375V26.2969H111.609V35.2969C111.609 35.9948 111.698 36.4323 111.875 36.6094C112.052 36.776 112.594 36.8594 113.5 36.8594C113.635 36.8594 113.776 36.8594 113.922 36.8594C114.078 36.849 114.229 36.8385 114.375 36.8281Z" fill="#0077B6"/>
<path d="M48.8125 22.9688V40H44.2969V22.9688H48.8125ZM48.8125 16.8281V20.9375H44.2969V16.8281H48.8125ZM53.2344 16.9688H57.6875V40H53.2344V16.9688ZM66.625 22.9688V40H62.1094V22.9688H66.625ZM66.625 16.8281V20.9375H62.1094V16.8281H66.625Z" fill="#00B4D8"/>
<rect x="53" y="17" width="5" height="23" fill="#0077B6"/>
<rect x="54" y="33" width="1" height="1" rx="0.2" fill="#FFBE0B"/>
<rect x="54" y="29" width="1" height="1" rx="0.2" fill="#FFBE0B"/>
<rect x="54" y="25" width="1" height="1" rx="0.2" fill="#FFBE0B"/>
<rect x="54" y="21" width="1" height="1" rx="0.2" fill="#FFBE0B"/>
<rect x="54" y="35" width="1" height="1" rx="0.2" fill="#FFBE0B"/>
<rect x="54" y="31" width="1" height="1" rx="0.2" fill="#FFBE0B"/>
<rect x="54" y="27" width="1" height="1" rx="0.2" fill="#FFBE0B"/>
<rect x="54" y="23" width="1" height="1" rx="0.2" fill="#FFBE0B"/>
<rect x="54" y="19" width="1" height="1" rx="0.2" fill="#FFBE0B"/>
<rect x="56" y="35" width="1" height="1" rx="0.2" fill="#FFBE0B"/>
<rect x="54" y="38" width="3" height="2" rx="0.2" fill="#FFBE0B"/>
<rect x="56" y="31" width="1" height="1" rx="0.2" fill="#FFBE0B"/>
<rect x="56" y="27" width="1" height="1" rx="0.2" fill="#FFBE0B"/>
<rect x="56" y="23" width="1" height="1" rx="0.2" fill="#FFBE0B"/>
<rect x="56" y="19" width="1" height="1" rx="0.2" fill="#FFBE0B"/>
<rect x="56" y="33" width="1" height="1" rx="0.2" fill="#FFBE0B"/>
<rect x="56" y="29" width="1" height="1" rx="0.2" fill="#FFBE0B"/>
<rect x="56" y="25" width="1" height="1" rx="0.2" fill="#FFBE0B"/>
<rect x="56" y="21" width="1" height="1" rx="0.2" fill="#FFBE0B"/>
<rect x="45" y="18" width="1" height="1.5" rx="0.2" fill="#F5F5F5"/>
<rect x="47" y="18" width="1" height="1.5" rx="0.2" fill="#FFFEFE"/>
<rect x="63" y="18" width="1" height="1.5" rx="0.2" fill="#FFFEFE"/>
<rect x="65" y="18" width="1" height="1.5" rx="0.2" fill="#FFFEFE"/>
</svg>
